<?xml version="1.0" encoding="utf-8"?>
<!-- Generator: Adobe Illustrator 27.8.1, SVG Export Plug-In . SVG Version: 6.00 Build 0)  -->
<svg version="1.1" id="Layer_1" xmlns="http://www.w3.org/2000/svg" xmlns:xlink="http://www.w3.org/1999/xlink" x="0px" y="0px"
	 viewBox="0 0 595.28 841.89" style="enable-background:new 0 0 595.28 841.89;" xml:space="preserve">
<style type="text/css">
	.st0{fill:#FFFFFF;}
</style>
<g>
	<g>
		<path class="st0" d="M559.24,173.16c-174.4,0-348.8,0-523.2,0c0-43.84,0-87.68,0-131.52c174.4,0,348.8,0,523.2,0
			C559.24,85.48,559.24,129.32,559.24,173.16z M400.5,124.11c0-23.76,0-47.44,0-71.03c-1.83,0-3.56,0-5.43,0c0,17.76,0,35.58,0,53.8
			c-0.69-0.45-1.19-0.65-1.5-1.01c-6.58-7.58-13.14-15.17-19.7-22.77c-8.36-9.68-16.72-19.36-25.1-29.04
			c-0.38-0.43-0.84-1.01-1.33-1.08c-1.12-0.16-2.28-0.05-3.43-0.05c0,23.83,0,47.5,0,71.11c1.82,0,3.59,0,5.47,0
			c0-18.63,0-37.29,0-56.38c0.72,0.55,1.22,0.81,1.56,1.21c6.5,7.65,12.98,15.3,19.45,22.98c8.56,10.15,17.15,20.26,25.59,30.5
			C397.37,123.88,398.56,124.5,400.5,124.11z M480.25,91.31c0,0.35,0,0.82,0,1.29c0,7.56,0,15.12,0,22.68
			c0,2.81,0.01,2.83-2.67,3.89c-5.91,2.36-12.05,2.8-18.27,1.85c-9.65-1.46-16.61-6.6-20.32-15.71c-3.67-9.02-3.95-18.37-1.97-27.8
			c1.26-6,3.83-11.4,8.51-15.5c7.69-6.72,16.66-7.99,26.3-5.59c5.25,1.31,9.67,4.11,13.33,8.11c0.38,0.41,1.03,0.57,1.55,0.85
			c0.23-0.47,0.53-0.93,0.68-1.42c0.42-1.42,0.75-2.86,1.16-4.28c0.72-2.48,0.77-2.56-1.54-3.61c-12.36-5.58-25.11-6.47-37.96-2.22
			c-11.36,3.77-18.51,11.83-21.42,23.43c-2.19,8.76-1.87,17.54,0.89,26.15c2.44,7.6,7.02,13.58,14.09,17.49
			c5.1,2.83,10.64,4.12,16.41,4.41c9.86,0.49,19.43-1.04,28.76-4.27c0.88-0.3,1.13-0.73,1.12-1.63c-0.03-9-0.02-18-0.02-27
			c0-0.42-0.04-0.83-0.05-1.15C485.9,91.31,483.16,91.31,480.25,91.31z M98.69,91.31c0,0.41,0,0.84,0,1.27
			c0,7.8-0.05,15.6,0.04,23.4c0.02,1.57-0.49,2.32-1.9,2.9c-5.33,2.22-10.85,2.79-16.56,2.46c-11.03-0.64-19.67-6.92-23.38-17.32
			c-3.08-8.61-3.34-17.45-1.48-26.35c1.29-6.17,4-11.62,8.78-15.88c7.81-6.97,20.78-8.49,30.75-3.65c3.39,1.65,6.35,3.83,8.86,6.65
			c0.29,0.33,0.86,0.54,1.31,0.55c0.19,0.01,0.48-0.61,0.59-0.99c0.38-1.26,0.69-2.54,1.05-3.81c0.98-3.45,1.02-3.54-2.36-4.96
			c-11.7-4.93-23.74-5.78-35.86-2.08c-11.61,3.54-19.16,11.41-22.31,23.18c-2.37,8.85-2.07,17.74,0.64,26.49
			c2.1,6.77,5.96,12.35,11.89,16.37c5.7,3.85,12.12,5.49,18.89,5.82c9.82,0.47,19.35-1.08,28.63-4.3c0.83-0.29,1.07-0.68,1.06-1.53
			c-0.03-9.08-0.02-18.16-0.02-27.24c0-0.38-0.04-0.75-0.06-0.99C104.36,91.31,101.61,91.31,98.69,91.31z M532.74,51.34
			c-0.9,0.09-2.41,0.18-3.91,0.39c-12.99,1.84-20.45,14.7-15.66,26.94c1.74,4.44,5.15,7.25,9.28,9.26
			c3.41,1.66,6.99,2.97,10.35,4.71c2.28,1.18,4.56,2.59,6.38,4.36c3.28,3.19,3.82,7.39,3.01,11.7
			c-2.46,13.11-15.34,15.05-23.06,8.94c-2.36-1.87-4.04-4.29-5.6-6.83c-0.2-0.32-0.64-0.49-0.96-0.72c-0.2,0.34-0.5,0.66-0.57,1.02
			c-0.42,2.07-0.73,4.17-1.19,6.23c-0.54,2.4-0.6,2.39,1.46,3.86c0.06,0.05,0.13,0.09,0.2,0.13c8.84,5.68,21.09,5.57,29.37-1
			c6.56-5.21,8.86-12.29,8.39-20.42c-0.33-5.7-3.24-9.85-8.08-12.68c-1.99-1.17-4.12-2.11-6.21-3.11c-3.24-1.55-6.6-2.88-9.71-4.65
			c-4.81-2.74-7.03-7.03-6.6-12.62c0.52-6.75,6.03-11.28,12.75-10.99c5.51,0.24,9.06,3.32,11.25,8.2c0.15,0.33,0.54,0.55,0.82,0.81
			c0.25-0.3,0.61-0.55,0.72-0.89c0.7-2.2,1.29-4.45,2.05-6.63c0.29-0.83,0.19-1.28-0.5-1.8C542.76,52.56,538.24,51.41,532.74,51.34z
			 M188.44,57.72c0,22.48,0,44.54,0,66.55c2.89,0,5.67,0,8.59,0c0-22.03,0-44.12,0-66.54c6.88,0.42,13.59,0.82,20.21,1.23
			c0-1.93,0-3.91,0-5.97c-16.63,0-33.37,0-50.04,0c0,2.08,0,4.09,0,5.97C174.22,58.56,181.23,58.15,188.44,57.72z M263.69,124.27
			c0-22.07,0-44.16,0-66.53c6.86,0.42,13.54,0.82,20.18,1.22c0-1.94,0-3.94,0-5.93c-16.71,0-33.4,0-49.99,0c0,2.08,0,4.06,0,5.93
			c7-0.41,14-0.82,21.18-1.24c0,22.41,0,44.5,0,66.54C257.96,124.27,260.7,124.27,263.69,124.27z M313.71,124.04
			c0-23.69,0-47.37,0-70.97c-2.89,0-5.67,0-8.51,0c0,23.65,0,47.34,0,70.97C308.06,124.04,310.84,124.04,313.71,124.04z
			 M137.38,53.07c0,23.68,0,47.38,0,70.97c2.87,0,5.66,0,8.5,0c0-23.64,0-47.33,0-70.97C143.04,53.07,140.25,53.07,137.38,53.07z
			 M444.57,154.41c0,2.95-0.02,5.86,0.04,8.77c0.01,0.25,0.56,0.48,0.86,0.72c0.1-0.09,0.2-0.18,0.31-0.27c0-2.39,0-4.79,0-7.33
			c1.45,2.34,2.82,4.49,4.13,6.69c0.44,0.75,0.95,0.96,1.8,0.66c0-1.57,0-3.12,0-4.68c0-1.55,0-3.1,0-4.66c-0.46,0-0.76,0-1.18,0
			c0,2.38,0,4.71,0,7.29c-1.46-2.32-2.79-4.39-4.06-6.5C446.04,154.39,445.56,154.04,444.57,154.41z M548.18,158.89
			c1.38-1.29,1.62-2.55,0.73-3.57c-0.93-1.06-3-1.15-4.16-0.17c-1.15,0.97-1.06,2.14,0.32,3.92c-1.59,1.28-1.93,2.8-0.89,3.96
			c1.18,1.31,3.79,1.28,4.97-0.05C550.28,161.71,549.96,160.3,548.18,158.89z M515.68,163.94c4.03-0.14,6.37-3.77,4.92-7.53
			c-0.64-1.65-2.29-2.37-3.89-1.71c-1.63,0.67-2.41,2.66-1.7,4.31c0.62,1.43,2.2,1.93,3.86,1.22c0.16-0.07,0.32-0.14,0.54-0.23
			c-0.34,1.74-1.28,2.64-3.01,2.85C515.7,162.93,515.33,163.09,515.68,163.94z M476.54,154.25c0,3.29,0,6.39,0,9.54
			c1.49,0,2.89,0.03,4.28-0.02c0.33-0.01,0.64-0.33,0.97-0.5c-0.33-0.17-0.66-0.48-1-0.5c-1.01-0.07-2.03-0.02-3.02-0.02
			c0-1.25,0-2.27,0-3.4c1.04,0,2,0,2.95,0c0.78,0,0.82-0.41,0.53-1.09c-1.16,0-2.31,0-3.48,0c0-0.99,0-1.88,0-2.9
			c1.3,0,2.52,0,3.74,0c0.07-0.12,0.14-0.23,0.21-0.35c-0.27-0.25-0.53-0.69-0.82-0.71C479.45,154.21,478.02,154.25,476.54,154.25z
			 M424.36,155.46c0.47-0.58,0.35-1.03-0.48-1.18c-0.58-0.1-1.19-0.13-1.78-0.09c-1.28,0.08-2.29,0.91-2.52,2.01
			c-0.24,1.18,0.27,2.16,1.52,2.82c0.6,0.31,1.33,0.46,1.8,0.9c0.44,0.4,0.93,1.19,0.81,1.63c-0.15,0.53-0.9,1.15-1.47,1.24
			c-0.81,0.14-1.69-0.16-2.61-0.28c-0.42,0.58-0.3,1.06,0.52,1.18c0.86,0.12,1.74,0.24,2.59,0.13c1.37-0.17,2.17-1.02,2.34-2.2
			c0.19-1.29-0.32-2.21-1.63-2.89c-0.6-0.31-1.31-0.47-1.81-0.9c-0.4-0.34-0.85-1.05-0.74-1.44c0.14-0.48,0.79-1.02,1.31-1.14
			C422.85,155.12,423.59,155.37,424.36,155.46z M467.66,162.79c-2.13,0.24-3.91,0.42-5.13-1.29c-1.04-1.46-1.04-3.14-0.14-4.64
			c1.17-1.95,3.06-1.87,5.04-1.35c0.07-0.35,0.14-0.65,0.21-1c-1.64-0.53-3.2-0.55-4.7,0.21c-2.26,1.15-3.13,4.29-1.97,6.79
			c1.07,2.32,3.9,2.86,6.2,2.16C467.4,163.6,467.5,163.1,467.66,162.79z M529.57,155.96c0.13,0.07,0.27,0.14,0.4,0.2
			c0.25-0.12,0.49-0.26,0.75-0.35c0.86-0.31,1.76-0.47,2.45,0.29c0.68,0.75,0.52,1.64,0.1,2.46c-0.24,0.46-0.54,0.9-0.88,1.27
			c-0.81,0.88-1.7,1.69-2.51,2.57c-0.31,0.34-0.51,0.78-0.89,1.39c1.98,0,3.61,0.03,5.24-0.02c0.29-0.01,0.56-0.33,0.84-0.51
			c-0.29-0.17-0.58-0.47-0.88-0.5c-0.92-0.07-1.85-0.02-2.85-0.02c1.12-1.37,2.2-2.5,3.04-3.79c0.86-1.31,0.63-2.89-0.28-3.76
			c-0.94-0.89-2.81-1.02-4.02-0.18C529.81,155.19,529.73,155.63,529.57,155.96z M503.11,155.9c0,2.77,0,5.3,0,7.92
			c0.46-0.05,0.79-0.09,1.1-0.12c0-3.05,0-5.99,0-9.33c-1.09,0.49-2,0.87-2.86,1.33c-0.11,0.06,0.03,0.58,0.06,0.95
			C502.02,156.38,502.44,156.19,503.11,155.9z M435.09,163.72c0-3.17,0-6.29,0-9.46c-0.4,0.02-0.71,0.03-1.06,0.05
			c0,3.17,0,6.26,0,9.41C434.4,163.72,434.73,163.72,435.09,163.72z"/>
		<path d="M400.5,124.11c-1.94,0.39-3.13-0.23-4.4-1.77c-8.44-10.24-17.04-20.36-25.59-30.5c-6.47-7.67-12.96-15.33-19.45-22.98
			c-0.34-0.4-0.84-0.66-1.56-1.21c0,19.09,0,37.75,0,56.38c-1.88,0-3.65,0-5.47,0c0-23.61,0-47.27,0-71.11
			c1.15,0,2.31-0.11,3.43,0.05c0.49,0.07,0.95,0.65,1.33,1.08c8.37,9.67,16.73,19.36,25.1,29.04c6.56,7.59,13.12,15.19,19.7,22.77
			c0.31,0.36,0.81,0.56,1.5,1.01c0-18.22,0-36.04,0-53.8c1.86,0,3.6,0,5.43,0C400.5,76.67,400.5,100.36,400.5,124.11z"/>
		<path d="M480.25,91.31c2.91,0,5.65,0,8.56,0c0.02,0.31,0.05,0.73,0.05,1.15c0,9-0.01,18,0.02,27c0,0.9-0.25,1.32-1.12,1.63
			c-9.32,3.23-18.9,4.76-28.76,4.27c-5.77-0.29-11.31-1.58-16.41-4.41c-7.07-3.91-11.65-9.89-14.09-17.49
			c-2.76-8.61-3.08-17.39-0.89-26.15c2.91-11.61,10.06-19.67,21.42-23.43c12.85-4.26,25.6-3.36,37.96,2.22
			c2.31,1.04,2.26,1.13,1.54,3.61c-0.41,1.42-0.74,2.86-1.16,4.28c-0.15,0.5-0.45,0.95-0.68,1.42c-0.52-0.28-1.18-0.44-1.55-0.85
			c-3.66-4-8.08-6.81-13.33-8.11c-9.64-2.4-18.61-1.14-26.3,5.59c-4.69,4.1-7.26,9.5-8.51,15.5c-1.98,9.44-1.7,18.79,1.97,27.8
			c3.71,9.11,10.67,14.24,20.32,15.71c6.22,0.94,12.36,0.5,18.27-1.85c2.68-1.07,2.67-1.09,2.67-3.89c0-7.56,0-15.12,0-22.68
			C480.25,92.14,480.25,91.67,480.25,91.31z"/>
		<path d="M98.69,91.31c2.92,0,5.67,0,8.56,0c0.01,0.24,0.06,0.62,0.06,0.99c0,9.08-0.01,18.16,0.02,27.24
			c0,0.85-0.23,1.25-1.06,1.53c-9.28,3.22-18.81,4.77-28.63,4.3c-6.77-0.33-13.2-1.96-18.89-5.82c-5.93-4.01-9.78-9.59-11.89-16.37
			c-2.72-8.75-3.01-17.65-0.64-26.49c3.15-11.77,10.71-19.64,22.31-23.18c12.12-3.7,24.16-2.86,35.86,2.08
			c3.38,1.43,3.34,1.51,2.36,4.96c-0.36,1.27-0.67,2.55-1.05,3.81c-0.11,0.38-0.4,0.99-0.59,0.99c-0.45-0.01-1.01-0.22-1.31-0.55
			c-2.5-2.83-5.47-5-8.86-6.65C84.97,53.3,72,54.82,64.19,61.79c-4.78,4.27-7.49,9.71-8.78,15.88c-1.86,8.9-1.59,17.73,1.48,26.35
			c3.71,10.4,12.35,16.68,23.38,17.32c5.71,0.33,11.23-0.24,16.56-2.46c1.41-0.59,1.91-1.33,1.9-2.9c-0.1-7.8-0.04-15.6-0.04-23.4
			C98.69,92.15,98.69,91.71,98.69,91.31z"/>
		<path d="M532.74,51.34c5.5,0.07,10.03,1.22,13.98,4.24c0.69,0.52,0.79,0.97,0.5,1.8c-0.76,2.18-1.35,4.43-2.05,6.63
			c-0.11,0.34-0.47,0.6-0.72,0.89c-0.28-0.27-0.68-0.49-0.82-0.81c-2.19-4.89-5.73-7.96-11.25-8.2
			c-6.72-0.29-12.22,4.24-12.75,10.99c-0.43,5.58,1.79,9.88,6.6,12.62c3.11,1.77,6.48,3.09,9.71,4.65c2.09,1,4.21,1.94,6.21,3.11
			c4.84,2.83,7.75,6.98,8.08,12.68c0.47,8.13-1.83,15.21-8.39,20.42c-8.28,6.57-20.53,6.68-29.37,1c-0.07-0.04-0.13-0.09-0.2-0.13
			c-2.05-1.48-2-1.47-1.46-3.86c0.47-2.06,0.77-4.16,1.19-6.23c0.07-0.36,0.38-0.68,0.57-1.02c0.33,0.24,0.77,0.41,0.96,0.72
			c1.55,2.54,3.24,4.96,5.6,6.83c7.71,6.12,20.6,4.18,23.06-8.94c0.81-4.32,0.27-8.51-3.01-11.7c-1.82-1.77-4.1-3.18-6.38-4.36
			c-3.36-1.74-6.94-3.06-10.35-4.71c-4.13-2.01-7.54-4.82-9.28-9.26c-4.8-12.24,2.67-25.1,15.66-26.94
			C530.32,51.52,531.84,51.43,532.74,51.34z"/>
		<path d="M188.44,57.72c-7.21,0.42-14.21,0.84-21.23,1.25c0-1.89,0-3.89,0-5.97c16.67,0,33.41,0,50.04,0c0,2.05,0,4.03,0,5.97
			c-6.63-0.4-13.34-0.81-20.21-1.23c0,22.42,0,44.51,0,66.54c-2.93,0-5.71,0-8.59,0C188.44,102.27,188.44,80.2,188.44,57.72z"/>
		<path d="M263.69,124.27c-2.99,0-5.73,0-8.63,0c0-22.04,0-44.13,0-66.54c-7.18,0.42-14.18,0.83-21.18,1.24c0-1.88,0-3.85,0-5.93
			c16.6,0,33.28,0,49.99,0c0,1.99,0,3.99,0,5.93c-6.64-0.4-13.32-0.81-20.18-1.22C263.69,80.11,263.69,102.2,263.69,124.27z"/>
		<path d="M313.71,124.04c-2.87,0-5.65,0-8.51,0c0-23.63,0-47.32,0-70.97c2.84,0,5.62,0,8.51,0
			C313.71,76.67,313.71,100.35,313.71,124.04z"/>
		<path d="M137.38,53.07c2.87,0,5.65,0,8.5,0c0,23.64,0,47.33,0,70.97c-2.85,0-5.63,0-8.5,0
			C137.38,100.45,137.38,76.76,137.38,53.07z"/>
		<path d="M444.57,154.41c0.99-0.37,1.47-0.03,1.9,0.7c1.27,2.11,2.6,4.18,4.06,6.5c0-2.59,0-4.91,0-7.29c0.42,0,0.72,0,1.18,0
			c0,1.56,0,3.11,0,4.66c0,1.56,0,3.11,0,4.68c-0.85,0.31-1.36,0.09-1.8-0.66c-1.3-2.2-2.68-4.35-4.13-6.69c0,2.54,0,4.93,0,7.33
			c-0.1,0.09-0.2,0.18-0.31,0.27c-0.3-0.24-0.86-0.47-0.86-0.72C444.55,160.27,444.57,157.36,444.57,154.41z"/>
		<path d="M548.18,158.89c1.78,1.42,2.09,2.82,0.97,4.08c-1.19,1.33-3.8,1.36-4.97,0.05c-1.04-1.16-0.7-2.67,0.89-3.96
			c-1.38-1.77-1.47-2.95-0.32-3.92c1.16-0.98,3.23-0.89,4.16,0.17C549.8,156.33,549.56,157.59,548.18,158.89z M548.47,161.4
			c0-0.94-1.02-1.93-1.96-1.91c-0.77,0.01-1.62,0.94-1.64,1.8c-0.02,0.93,0.77,1.72,1.76,1.75
			C547.64,163.07,548.47,162.34,548.47,161.4z M548.2,157.3c0-1.31-0.64-1.92-1.53-1.91c-0.87,0.01-1.59,0.71-1.55,1.5
			c0.03,0.72,1.07,1.78,1.7,1.53C547.43,158.19,547.89,157.57,548.2,157.3z"/>
		<path d="M515.68,163.94c-0.35-0.85,0.02-1.01,0.72-1.1c1.73-0.21,2.67-1.11,3.01-2.85c-0.22,0.1-0.38,0.16-0.54,0.23
			c-1.67,0.71-3.24,0.21-3.86-1.22c-0.71-1.65,0.07-3.64,1.7-4.31c1.61-0.66,3.26,0.06,3.89,1.71
			C522.05,160.17,519.71,163.8,515.68,163.94z M516.03,157.62c0,1.21,0.68,1.96,1.76,1.95c1.04-0.01,1.84-0.7,1.85-1.61
			c0.02-1.36-0.84-2.52-1.86-2.51C516.8,155.45,516.03,156.4,516.03,157.62z"/>
		<path d="M476.54,154.25c1.48,0,2.91-0.04,4.34,0.03c0.28,0.01,0.55,0.46,0.82,0.71c-0.07,0.12-0.14,0.23-0.21,0.35
			c-1.22,0-2.43,0-3.74,0c0,1.02,0,1.91,0,2.9c1.18,0,2.32,0,3.48,0c0.29,0.68,0.25,1.08-0.53,1.09c-0.95,0.01-1.9,0-2.95,0
			c0,1.14,0,2.15,0,3.4c0.99,0,2.01-0.04,3.02,0.02c0.34,0.02,0.67,0.32,1,0.5c-0.32,0.18-0.64,0.49-0.97,0.5
			c-1.39,0.06-2.79,0.02-4.28,0.02C476.54,160.64,476.54,157.54,476.54,154.25z"/>
		<path d="M424.36,155.46c-0.77-0.09-1.51-0.34-2.16-0.19c-0.52,0.12-1.17,0.66-1.31,1.14c-0.11,0.39,0.34,1.1,0.74,1.44
			c0.5,0.42,1.21,0.59,1.81,0.9c1.31,0.67,1.82,1.6,1.63,2.89c-0.17,1.17-0.97,2.02-2.34,2.2c-0.85,0.11-1.73-0.01-2.59-0.13
			c-0.82-0.11-0.94-0.6-0.52-1.18c0.92,0.12,1.8,0.42,2.61,0.28c0.57-0.1,1.31-0.71,1.47-1.24c0.13-0.44-0.37-1.23-0.81-1.63
			c-0.47-0.44-1.2-0.59-1.8-0.9c-1.25-0.65-1.76-1.63-1.52-2.82c0.23-1.1,1.24-1.93,2.52-2.01c0.59-0.04,1.2-0.01,1.78,0.09
			C424.71,154.43,424.83,154.88,424.36,155.46z"/>
		<path d="M467.66,162.79c-0.16,0.3-0.26,0.81-0.49,0.88c-2.3,0.71-5.13,0.16-6.2-2.16c-1.16-2.5-0.29-5.64,1.97-6.79
			c1.5-0.77,3.06-0.74,4.7-0.21c-0.07,0.35-0.14,0.64-0.21,1c-1.98-0.52-3.88-0.6-5.04,1.35c-0.9,1.5-0.89,3.18,0.14,4.64
			C463.75,163.21,465.53,163.04,467.66,162.79z"/>
		<path d="M529.57,155.96c0.16-0.32,0.23-0.77,0.49-0.95c1.22-0.83,3.08-0.71,4.02,0.18c0.91,0.87,1.14,2.45,0.28,3.76
			c-0.84,1.29-1.92,2.42-3.04,3.79c1,0,1.93-0.04,2.85,0.02c0.31,0.02,0.59,0.32,0.88,0.5c-0.28,0.18-0.56,0.5-0.84,0.51
			c-1.63,0.05-3.27,0.02-5.24,0.02c0.39-0.61,0.58-1.06,0.89-1.39c0.81-0.88,1.69-1.69,2.51-2.57c0.35-0.38,0.65-0.82,0.88-1.27
			c0.43-0.82,0.58-1.72-0.1-2.46c-0.69-0.76-1.59-0.6-2.45-0.29c-0.26,0.09-0.5,0.23-0.75,0.35
			C529.84,156.09,529.71,156.03,529.57,155.96z"/>
		<path d="M503.11,155.9c-0.67,0.29-1.09,0.48-1.69,0.74c-0.03-0.37-0.17-0.89-0.06-0.95c0.86-0.46,1.77-0.84,2.86-1.33
			c0,3.35,0,6.29,0,9.33c-0.32,0.04-0.65,0.07-1.1,0.12C503.11,161.2,503.11,158.67,503.11,155.9z"/>
		<path d="M435.09,163.72c-0.36,0-0.69,0-1.06,0c0-3.15,0-6.24,0-9.41c0.36-0.02,0.66-0.03,1.06-0.05
			C435.09,157.43,435.09,160.55,435.09,163.72z"/>
		<path class="st0" d="M548.47,161.4c0,0.93-0.83,1.67-1.84,1.64c-0.99-0.03-1.78-0.82-1.76-1.75c0.02-0.85,0.87-1.78,1.64-1.8
			C547.46,159.48,548.48,160.47,548.47,161.4z"/>
		<path class="st0" d="M548.2,157.3c-0.31,0.26-0.77,0.88-1.38,1.12c-0.64,0.25-1.67-0.81-1.7-1.53c-0.03-0.79,0.68-1.48,1.55-1.5
			C547.57,155.38,548.2,155.99,548.2,157.3z"/>
		<path class="st0" d="M516.03,157.62c0-1.21,0.77-2.16,1.75-2.17c1.02-0.01,1.88,1.15,1.86,2.51c-0.01,0.91-0.81,1.6-1.85,1.61
			C516.71,159.58,516.03,158.82,516.03,157.62z"/>
	</g>
</g>
</svg>
